HIERARCHY
ROOT Hips
{
	OFFSET 0.000000 0.000000 0.000000 
	CHANNELS 6 Xposition Yposition Zposition Zrotation Yrotation Xrotation
	JOINT LeftUpLeg
	{
		OFFSET 1.363060 -1.794630 0.839290 
		CHANNELS 3 Zrotation Yrotation Xrotation
		JOINT LeftLeg
		{
			OFFSET 2.448110 -6.726130 0.000000 
			CHANNELS 3 Zrotation Yrotation Xrotation
			JOINT LeftFoot
			{
				OFFSET 2.562200 -7.039590 0.000000 
				CHANNELS 3 Zrotation Yrotation Xrotation
				JOINT LeftToeBase
				{
					OFFSET 0.157640 -0.433110 2.322550 
					CHANNELS 3 Zrotation Yrotation Xrotation
					End Site
					{
						OFFSET 0.000000 0.000000 0.000000 
					}
				}
			}
		}
	}
	JOINT RightUpLeg
	{
		OFFSET -1.305520 -1.794630 0.839290 
		CHANNELS 3 Zrotation Yrotation Xrotation
		JOINT RightLeg
		{
			OFFSET -2.542530 -6.985550 0.000000 
			CHANNELS 3 Zrotation Yrotation Xrotation
			JOINT RightFoot
			{
				OFFSET -2.568260 -7.056230 0.000000 
				CHANNELS 3 Zrotation Yrotation Xrotation
				JOINT RightToeBase
				{
					OFFSET -0.164730 -0.452590 2.363150 
					CHANNELS 3 Zrotation Yrotation Xrotation
					End Site
					{
						OFFSET 0.000000 0.000000 0.000000 
					}
				}
			}
		}
	}
	JOINT Spine
	{
		OFFSET 0.028270 2.035590 -0.193380 
		CHANNELS 3 Zrotation Yrotation Xrotation
		JOINT Spine1
		{
			OFFSET 0.056720 2.048850 -0.042750 
			CHANNELS 3 Zrotation Yrotation Xrotation
			JOINT Neck1
			{
				OFFSET -0.054170 1.746240 0.172020 
				CHANNELS 3 Zrotation Yrotation Xrotation
				JOINT Head
				{
					OFFSET 0.104070 1.761360 -0.123970 
					CHANNELS 3 Zrotation Yrotation Xrotation
					End Site
					{
						OFFSET 0.000000 0.000000 0.000000 
					}
				}
			}
			JOINT LeftArm
			{
				OFFSET 3.362410 1.200890 -0.311210 
				CHANNELS 3 Zrotation Yrotation Xrotation
				JOINT LeftForeArm
				{
					OFFSET 4.983000 -0.000000 -0.000000 
					CHANNELS 3 Zrotation Yrotation Xrotation
					JOINT LeftHand
					{
						OFFSET 3.483560 -0.000000 -0.000000 
						CHANNELS 3 Zrotation Yrotation Xrotation
						JOINT LeftHandIndex1
						{
							OFFSET 0.715260 -0.000000 -0.000000 
							CHANNELS 3 Zrotation Yrotation Xrotation
							End Site
							{
								OFFSET 0.000000 0.000000 0.000000 
							}
						}
					}
				}
			}
			JOINT RightArm
			{
				OFFSET -3.136600 1.374050 -0.404650 
				CHANNELS 3 Zrotation Yrotation Xrotation
				JOINT RightForeArm
				{
					OFFSET -5.241900 -0.000000 -0.000000 
					CHANNELS 3 Zrotation Yrotation Xrotation
					JOINT RightHand
					{
						OFFSET -3.444170 -0.000000 -0.000000 
						CHANNELS 3 Zrotation Yrotation Xrotation
						JOINT RightHandIndex1
						{
							OFFSET -0.622530 -0.000000 -0.000000 
							CHANNELS 3 Zrotation Yrotation Xrotation
							End Site
							{
								OFFSET 0.000000 0.000000 0.000000 
							}
						}
					}
				}
			}
		}
	}
}
MOTION
Frames: 7
Frame Time: 0.041667
-0.171004 17.997098 -31.276511 -5.951542 -6.375353 1.112700 -9.390486 -8.839342 -30.007615 6.107512 14.655980 48.152530 0.596873 -1.741804 1.978588 0.145700 -2.459600 -6.777600 29.332342 12.765149 -9.033157 -1.420140 -6.504992 26.263299 -0.827333 1.743128 0.354112 -0.087100 -1.903500 5.239100 5.477041 1.769243 7.180857 -0.108831 0.947627 -6.334604 4.142867 -4.648884 12.871283 0.023900 -1.987600 7.221800 -80.545551 8.666611 27.189645 16.624635 -27.034551 -4.136423 -0.263512 -0.714563 -2.543046 -7.125000 0.000000 0.000000 72.489896 -0.306172 15.261833 -13.832525 27.124652 -3.995819 0.889423 -0.141892 -0.770618 7.125000 0.000000 0.000000 
-0.170008 17.996102 -31.142457 -6.129332 -6.398829 1.224883 -9.018106 -9.101806 -30.335456 5.593985 14.315419 46.397562 0.449354 -0.972099 2.114377 0.147400 -2.473800 -6.817000 29.493648 12.497139 -8.573219 -1.362794 -6.383267 25.940408 -0.854989 1.803746 0.053067 -0.060200 -1.582600 4.353400 5.279502 1.928560 7.313403 -0.354811 1.031597 -6.105430 3.915773 -4.497865 12.740362 -0.120800 -1.906000 7.263800 -80.349310 8.495221 27.517438 16.504568 -26.862202 -4.110943 -0.296425 -0.611331 -2.694032 -7.125000 0.000000 0.000000 72.682538 0.097323 15.017142 -13.872633 27.206508 -4.185799 0.600345 0.355983 -0.982747 7.125000 0.000000 0.000000 
-0.170506 17.997895 -31.006312 -6.193167 -6.558006 1.447862 -8.750292 -9.256011 -30.737556 5.055836 13.935061 44.532868 0.278168 -0.122161 2.244475 0.186500 -2.781400 -7.670900 29.534817 12.563026 -8.171983 -1.327600 -6.302713 25.728342 -0.805888 1.618241 -0.152664 -0.063800 -1.629400 4.482500 4.971295 2.105230 7.181066 -0.748424 1.119173 -5.775164 4.238699 -4.859169 11.922478 -0.038300 -2.093200 6.800700 -80.082397 8.778030 27.442772 16.492764 -26.854375 -4.089277 -0.277840 -0.663115 -1.922083 -7.125000 0.000000 0.000000 73.014327 0.136524 15.101022 -14.015979 27.332739 -4.147778 0.792407 0.100156 -0.717510 7.125000 0.000000 0.000000 
-0.166323 17.995405 -30.862298 -6.137076 -6.204962 1.685544 -8.547833 -9.927174 -31.141646 4.530433 13.520492 42.665042 0.085897 0.766708 2.203233 0.190300 -2.809600 -7.749000 29.456173 12.454670 -7.875657 -1.284605 -6.203317 25.462223 -0.640071 1.035537 -0.401949 -0.084800 -1.877800 5.168200 4.305983 2.023634 8.821499 -1.042639 1.137230 -4.458530 3.716983 -5.277805 13.667642 -0.495000 -2.171700 8.180900 -79.535219 5.973367 30.288971 18.432852 -29.565806 -5.020047 -0.381991 -1.313279 -2.450225 -7.125000 0.000000 0.000000 73.794450 3.525175 14.370260 -13.967917 27.129327 -4.042904 0.860094 -0.082713 -0.254513 7.125000 0.000000 0.000000 
-0.165924 17.992218 -30.731730 -6.280856 -7.033639 1.696337 -8.243440 -9.510046 -31.250441 4.010662 13.090985 40.762727 -0.156022 1.876498 1.976545 0.193300 -2.831600 -7.810100 29.523067 12.572248 -7.131373 -1.233872 -6.098964 25.190144 -0.725718 1.340029 -0.381799 -0.101400 -2.053700 5.654200 4.470393 2.500661 8.569828 -0.948651 1.368680 -4.903736 3.383476 -5.285325 13.748560 -0.588500 -2.208000 8.188200 -79.853513 6.095247 27.844603 16.094571 -26.353149 -3.896727 -0.280976 -0.703048 -1.824740 -7.125000 0.000000 0.000000 73.549812 3.400952 14.613296 -14.080877 27.306120 -4.090305 0.869575 -0.136904 -0.546767 7.125000 0.000000 0.000000 
-0.164530 17.989429 -30.602656 -6.560407 -7.124946 1.743793 -7.734768 -9.745346 -31.295916 3.498630 12.618240 38.825192 -0.328666 2.636212 2.004354 0.203400 -2.903700 -8.010700 29.765789 12.326237 -6.561154 -1.174209 -5.972103 24.847135 -0.750792 1.411380 -0.550591 -0.122200 -2.253500 6.206800 4.782264 2.569466 8.191591 -0.903543 1.392499 -5.385753 3.242023 -5.208307 13.369430 -0.566300 -2.222500 7.921800 -80.158448 6.873599 30.101790 18.105444 -29.152502 -4.855445 -0.391463 -1.347656 -2.024759 -7.125000 0.000000 0.000000 73.182261 3.077057 15.074079 -14.177584 27.457242 -4.141565 0.870945 -0.123469 -0.741306 7.125000 0.000000 0.000000 
-0.162239 17.991122 -30.473283 -6.724978 -7.293027 1.887952 -7.337324 -9.916419 -31.400791 2.992756 12.120885 36.855383 -0.534085 3.487973 2.230378 0.232200 -3.101200 -8.560500 29.852376 12.159110 -6.036257 -1.092838 -5.818942 24.409189 -0.808593 1.577183 -0.762254 -0.099300 -2.032600 5.595700 4.938909 2.545041 7.810188 -0.877621 1.372460 -5.609680 3.478332 -4.983981 13.269344 -0.384500 -2.129600 7.768900 -80.529739 7.362198 27.252905 15.835034 -25.989377 -3.776071 -0.292653 -0.701841 -1.536678 -7.125000 0.000000 0.000000 72.919592 2.769756 15.670565 -14.237938 27.560584 -4.176267 0.864295 -0.124476 -0.809547 7.125000 0.000000 0.000000 
